ffmpeg started on 2016-11-27 at 16:21:22
Report written to "Output/NVENCh264/results/ffmpeg/old_town_cross_2160p50llhq15000k.log"
Command line:
Tools/ffmpeg/ffmpeg -benchmark -y -i Input/y4m/old_town_cross_2160p50.y4m -c:v h264_nvenc -preset llhq -b:v 15000k -an Output/NVENCh264/encoded/old_town_cross_2160p50llhq15000k.mkv
ffmpeg version N-82227-gdb23fde Copyright (c) 2000-2016 the FFmpeg developers
  built with gcc 5.4.0 (Ubuntu 5.4.0-6ubuntu1~16.04.2) 20160609
  configuration: --prefix=/home/jaroslav/ffmpeg_build --pkg-config-flags=--static --extra-cflags=-I/home/jaroslav/ffmpeg_build/include --extra-ldflags=-L/home/jaroslav/ffmpeg_build/lib --bindir=/home/jaroslav/bin --enable-gpl --enable-libass --enable-libfdk-aac --enable-libfreetype --enable-libmp3lame --enable-libopus --enable-libtheora --enable-libvorbis --enable-libvpx --enable-libx264 --enable-libx265 --enable-nvenc --enable-libmfx --enable-libxvid --enable-libgsm --enable-libopencore-amrnb --enable-version3 --enable-nonfree
  libavutil      55. 35.100 / 55. 35.100
  libavcodec     57. 66.101 / 57. 66.101
  libavformat    57. 57.100 / 57. 57.100
  libavdevice    57.  2.100 / 57.  2.100
  libavfilter     6. 66.100 /  6. 66.100
  libswscale      4.  3.100 /  4.  3.100
  libswresample   2.  4.100 /  2.  4.100
  libpostproc    54.  2.100 / 54.  2.100
Input #0, yuv4mpegpipe, from 'Input/y4m/old_town_cross_2160p50.y4m':
  Duration: 00:00:10.00, start: 0.000000, bitrate: 4976642 kb/s
    Stream #0:0: Video: rawvideo (I420 / 0x30323449), yuv420p(progressive), 3840x2160, SAR 1:1 DAR 16:9, 50 fps, 50 tbr, 50 tbn, 50 tbc
[h264_nvenc @ 0x45be120] The variable bitrate rate-control requires the 'qmin' and/or 'qmax' option set.
Output #0, matroska, to 'Output/NVENCh264/encoded/old_town_cross_2160p50llhq15000k.mkv':
  Metadata:
    encoder         : Lavf57.57.100
    Stream #0:0: Video: h264 (h264_nvenc) (Main) (H264 / 0x34363248), yuv420p, 3840x2160 [SAR 1:1 DAR 16:9], q=-1--1, 15000 kb/s, 50 fps, 1k tbn, 50 tbc
    Metadata:
      encoder         : Lavc57.66.101 h264_nvenc
    Side data:
      cpb: bitrate max/min/avg: 0/0/15000000 buffer size: 30000000 vbv_delay: -1
Stream mapping:
  Stream #0:0 -> #0:0 (rawvideo (native) -> h264 (h264_nvenc))
Press [q] to stop, [?] for help
frame=   20 fps=0.0 q=0.0 size=       0kB time=00:00:00.00 bitrate=N/A speed=   0x    frame=   30 fps= 29 q=0.0 size=       0kB time=00:00:00.00 bitrate=N/A speed=   0x    frame=   48 fps= 31 q=32.0 size=       1kB time=00:00:00.34 bitrate=  17.5kbits/s speed=0.219x    frame=   56 fps= 27 q=32.0 size=       1kB time=00:00:00.50 bitrate=  11.9kbits/s speed=0.239x    frame=   74 fps= 28 q=32.0 size=       1kB time=00:00:00.86 bitrate=   7.0kbits/s speed=0.33x    frame=   92 fps= 29 q=31.0 size=       1kB time=00:00:01.22 bitrate=   4.9kbits/s speed=0.39x    frame=  110 fps= 30 q=32.0 size=       1kB time=00:00:01.58 bitrate=   3.8kbits/s speed=0.434x    frame=  128 fps= 31 q=32.0 size=       1kB time=00:00:01.94 bitrate=   3.1kbits/s speed=0.466x    frame=  146 fps= 31 q=32.0 size=       1kB time=00:00:02.30 bitrate=   2.6kbits/s speed=0.492x    frame=  164 fps= 32 q=31.0 size=       1kB time=00:00:02.66 bitrate=   2.2kbits/s speed=0.512x    frame=  181 fps= 32 q=32.0 size=    5126kB time=00:00:03.00 bitrate=13993.4kbits/s speed=0.527x    frame=  199 fps= 32 q=31.0 size=    5126kB time=00:00:03.36 bitrate=12494.6kbits/s speed=0.541x    frame=  206 fps= 30 q=31.0 size=    5126kB time=00:00:03.50 bitrate=11994.9kbits/s speed=0.518x    frame=  224 fps= 31 q=31.0 size=    5126kB time=00:00:03.86 bitrate=10876.5kbits/s speed=0.53x    frame=  242 fps= 31 q=32.0 size=    5126kB time=00:00:04.22 bitrate=9948.9kbits/s speed=0.541x    frame=  260 fps= 31 q=31.0 size=    5126kB time=00:00:04.58 bitrate=9167.1kbits/s speed=0.551x    frame=  278 fps= 31 q=31.0 size=    5126kB time=00:00:04.94 bitrate=8499.2kbits/s speed=0.56x    frame=  296 fps= 32 q=32.0 size=    8977kB time=00:00:05.30 bitrate=13873.2kbits/s speed=0.567x    frame=  314 fps= 32 q=32.0 size=    8977kB time=00:00:05.66 bitrate=12991.0kbits/s speed=0.574x    frame=  332 fps= 32 q=31.0 size=    8977kB time=00:00:06.02 bitrate=12214.3kbits/s speed=0.58x    frame=  350 fps= 32 q=31.0 size=    8977kB time=00:00:06.38 bitrate=11525.2kbits/s speed=0.586x    frame=  368 fps= 32 q=32.0 size=    8977kB time=00:00:06.74 bitrate=10909.7kbits/s speed=0.591x    frame=  386 fps= 32 q=31.0 size=    8977kB time=00:00:07.10 bitrate=10356.6kbits/s speed=0.596x    frame=  404 fps= 32 q=32.0 size=    8977kB time=00:00:07.46 bitrate=9856.9kbits/s speed= 0.6x    frame=  422 fps= 33 q=32.0 size=   14103kB time=00:00:07.82 bitrate=14771.9kbits/s speed=0.603x    frame=  440 fps= 33 q=31.0 size=   14103kB time=00:00:08.18 bitrate=14121.9kbits/s speed=0.607x    frame=  458 fps= 33 q=32.0 size=   14103kB time=00:00:08.54 bitrate=13526.6kbits/s speed=0.611x    frame=  476 fps= 33 q=32.0 size=   14103kB time=00:00:08.90 bitrate=12979.6kbits/s speed=0.614x    frame=  494 fps= 33 q=34.0 size=   14103kB time=00:00:09.26 bitrate=12475.0kbits/s speed=0.617x    frame=  500 fps= 33 q=32.0 Lsize=   18284kB time=00:00:09.98 bitrate=15006.7kbits/s speed=0.655x    
video:18279kB audio:0kB subtitle:0kB other streams:0kB global headers:0kB muxing overhead: 0.025964%
bench: utime=1.140s
bench: maxrss=1423048kB
